<?xml version="1.0" standalone="no"?><!DOCTYPE svg PUBLIC "-//W3C//DTD SVG 1.1//EN" "http://www.w3.org/Graphics/SVG/1.1/DTD/svg11.dtd"><svg t="1542465527928" class="icon" style="" viewBox="0 0 1024 1024" version="1.1" xmlns="http://www.w3.org/2000/svg" p-id="579" xmlns:xlink="http://www.w3.org/1999/xlink" width="200" height="200"><defs><style type="text/css"></style></defs><path d="M257.243317 303.056224c-13.846356 0-25.071002 11.224646-25.071002 25.071002s11.224646 25.071002 25.071002 25.071002c13.845333 0 25.071002-11.224646 25.071002-25.071002S271.089673 303.056224 257.243317 303.056224zM257.243317 350.691127c-12.44238 0-22.562878-10.121522-22.562878-22.563902 0-12.443403 10.120498-22.563902 22.562878-22.563902s22.562878 10.120498 22.562878 22.563902C279.806195 340.569606 269.685697 350.691127 257.243317 350.691127z" p-id="580" fill="#1afa29"></path><path d="M255.843434 309.422212l2.801812 0 0 20.205181-2.801812 0 0-20.205181Z" p-id="581" fill="#1afa29"></path><path d="M255.941672 326.72632l20.203134 0 0 2.801812-20.203134 0 0-2.801812Z" p-id="582" fill="#1afa29"></path><path d="M516.409938 66.868967c-246.744707 0-446.75195 199.99087-446.75195 446.736601 0 246.718101 200.00622 446.716134 446.75195 446.716134 246.717078 0 446.723298-199.998033 446.723298-446.716134C963.133236 266.859837 763.127016 66.868967 516.409938 66.868967zM802.974559 423.077761 505.991658 757.665119c-5.299703 5.925966-15.039531 7.186679-21.636786 2.819209L232.679875 594.519412c-6.641257-4.362354-8.721639-13.547551-4.647857-20.322861l67.961858-113.75788c4.02978-6.811126 12.160971-8.014534 18.035772-2.63399l146.123009 133.490294c5.799076 5.370311 14.434757 4.462638 19.082614-2.000564l209.655997-290.438858c4.591575-6.426363 12.796444-6.884804 18.22713-1.069355l95.724155 103.892185C808.198537 407.478482 808.288588 417.144632 802.974559 423.077761z" p-id="583" fill="#1afa29"></path></svg>